HIERARCHY
ROOT ui
{
	 OFFSET 0 0 0
	 CHANNELS 3 XPosition YPosition Z Position
	 EndSite
	 {
	 OFFSET 0 -1 0
	 }
}
ROOT li
{
	 OFFSET 0 0 0
	 CHANNELS 3 XPosition YPosition Z Position
	 EndSite
	 {
	 OFFSET 0 -1 0
	 }
}
ROOT ul
{
	 OFFSET 0 0 0
	 CHANNELS 3 XPosition YPosition Z Position
	 EndSite
	 {
	 OFFSET 0 -1 0
	 }
}
ROOT ll
{
	 OFFSET 0 0 0
	 CHANNELS 3 XPosition YPosition Z Position
	 EndSite
	 {
	 OFFSET 0 -1 0
	 }
}
ROOT tt
{
	 OFFSET 0 0 0
	 CHANNELS 3 XPosition YPosition Z Position
	 EndSite
	 {
	 OFFSET 0 -1 0
	 }
}
ROOT tb
{
	 OFFSET 0 0 0
	 CHANNELS 3 XPosition YPosition Z Position
	 EndSite
	 {
	 OFFSET 0 -1 0
	 }
}
ROOT td
{
	 OFFSET 0 0 0
	 CHANNELS 3 XPosition YPosition Z Position
	 EndSite
	 {
	 OFFSET 0 -1 0
	 }
}
ROOT v
{
	 OFFSET 0 0 0
	 CHANNELS 3 XPosition YPosition Z Position
	 EndSite
	 {
	 OFFSET 0 -1 0
	 }
}
ROOT bn
{
	 OFFSET 0 0 0
	 CHANNELS 3 XPosition YPosition Z Position
	 EndSite
	 {
	 OFFSET 0 -1 0
	 }
}
MOTION
Frames: 19
Frame Time: 0.002
-0.006629286766052246	9.141169786453247E-4	0		0.4713128967285156	-2.37527880859375	0		-1.1323271484375	0.027017860412597655	0		-0.6498102416992187	-2.8654345703125	0		2.87328564453125	-0.20346627807617187	0		4.1902138671875	-0.05612278366088867	0		5.44081298828125	0.036801513671875	0		5.969185546875	0.6306536865234375	0		-0.22744839477539064	5.95195361328125	0		
-0.006705232143402099	9.136930108070374E-4	0		0.4583719177246094	-2.369965576171875	0		-1.149229736328125	0.03441937637329102	0		-0.6272888793945313	-2.882986572265625	0		2.87575244140625	-0.22252020263671876	0		4.174998046875	-0.06174125671386719	0		5.43119677734375	0.05606119918823242	0		5.964080078125	0.5531232299804687	0		-0.24181227111816406	5.94129248046875	0		
0.015108915328979492	-0.003621985912322998	0		0.46292092895507814	-2.386085205078125	0		-1.1493133544921874	0.034402843475341796	0		-0.6248314819335937	-2.9030654296875	0		2.851244873046875	-0.23992251586914062	0		4.17491552734375	-0.061715972900390624	0		5.42794580078125	0.049170551300048826	0		5.96402001953125	0.5531921997070313	0		-0.24194216918945313	5.94128271484375	0		
-0.009948580741882325	-0.0020350849628448485	0		0.4608111572265625	-2.38804541015625	0		-1.1494024658203126	0.03437589645385742	0		-0.5992081298828125	-2.9167080078125	0		2.83960888671875	-0.2626337585449219	0		4.16904541015625	-0.05254197692871094	0		5.418244140625	0.0654526596069336	0		5.96801904296875	0.6032314453125	0		-0.22783665466308595	5.95192626953125	0		
0.010048728942871094	0.001463001012802124	0		0.47053329467773436	-2.39729638671875	0		-1.145401123046875	0.03824209213256836	0		-0.6255160522460937	-2.927108642578125	0		2.81219091796875	-0.27595989990234376	0		4.15355859375	-0.027124591827392578	0		5.421365234375	0.07443603515625	0		5.97134521484375	0.5858445434570313	0		-0.21375514221191405	5.9625634765625	0		
-0.007066862106323242	8.470829725265503E-4	0		0.44660598754882813	-2.39173779296875	0		-1.1373323974609375	0.04500317001342773	0		-0.582981689453125	-2.945171875	0		2.801982177734375	-0.2806934814453125	0		4.14312890625	-0.04083197784423828	0		5.41646142578125	0.0826245346069336	0		5.97127490234375	0.58598583984375	0		-0.2282165985107422	5.95187451171875	0		
0.01782657814025879	2.1889099478721618E-4	0		0.46838153076171873	-2.39928271484375	0		-1.152476318359375	0.043312091827392575	0		-0.6230809326171876	-2.94725146484375	0		2.771273193359375	-0.30593673706054686	0		4.1444140625	-0.0248035831451416	0		5.41157763671875	0.09182508850097656	0		5.9637470703125	0.5537066650390625	0		-0.22941403198242188	5.952865234375	0		
-0.007268806934356689	7.878149747848511E-4	0		0.46421591186523437	-2.404205322265625	0		-1.15943408203125	0.0494206657409668	0		-0.5624922485351562	-2.963754638671875	0		2.790476806640625	-0.33537432861328126	0		4.091471435546875	-0.01746948432922363	0		5.3976923828125	0.1012528305053711	0		5.9639970703125	0.586756103515625	0		-0.24389035034179687	5.94316748046875	0		
-0.010446683883666992	-0.0021721820831298827	0		0.46107522583007815	-2.408153076171875	0		-1.159542236328125	0.049358684539794924	0		-0.6344552001953125	-2.960077880859375	0		2.724134033203125	-0.3447523193359375	0		4.10540869140625	-0.01573379421234131	0		5.3975830078125	0.1013575439453125	0		5.97105029296875	0.586551025390625	0		-0.22991287231445312	5.95279052734375	0		
-0.010558420181274415	-0.0022057929039001464	0		0.47285809326171874	-2.415458984375	0		-1.1596553955078126	0.049293807983398434	0		-0.5579868774414063	-2.981964599609375	0		2.736286376953125	-0.37601361083984375	0		4.0744736328125	-0.007915955066680908	0		5.3792392578125	0.13391636657714845	0		5.9777265625	0.6209955444335937	0		-0.2282350311279297	5.95070361328125	0		
0.020460323333740236	0.0030186119079589845	0		0.4836406555175781	-2.4227392578125	0		-1.14751318359375	0.059937984466552734	0		-0.6099790649414063	-2.979771484375	0		2.74677197265625	-0.39322662353515625	0		4.0640302734375	0.020421865463256837	0		5.37338427734375	0.14517672729492187	0		5.9708837890625	0.5870185546875	0		-0.23047190856933594	5.95271142578125	0		
-0.007721707820892334	6.568229794502258E-4	0		0.480498291015625	-2.426683837890625	0		-1.134636962890625	0.05956302642822266	0		-0.5175143432617187	-3.002033935546875	0		2.728503173828125	-0.3997464904785156	0		4.024826904296875	0.017440576553344727	0		5.36047998046875	0.15460948181152342	0		5.9636669921875	0.5876815795898438	0		-0.24597406005859376	5.9440341796875	0		
-0.007841569900512695	6.280159950256348E-4	0		0.46654830932617186	-2.42236572265625	0		-1.172747802734375	0.06040707015991211	0		-0.567342041015625	-2.99288818359375	0		2.698807373046875	-0.42399752807617186	0		4.03356103515625	0.011316234588623048	0		5.34757421875	0.16404402160644532	0		5.95612548828125	0.5554873046875	0		-0.2462667236328125	5.943998046875	0		
-0.011032222747802734	-0.002324850082397461	0		0.5001539306640626	-2.437182861328125	0		-1.101009033203125	0.05363650894165039	0		-0.5268412475585937	-3.012899658203125	0		2.660210205078125	-0.4440355224609375	0		4.0166357421875	0.019807937622070313	0		5.32502734375	0.18871121215820313	0		5.96349169921875	0.5881881713867188	0		-0.23134512329101561	5.95260693359375	0		
-0.008078983306884766	5.823479890823364E-4	0		0.4839640197753906	-2.4428076171875	0		-1.1770587158203125	0.05739305114746094	0		-0.5556553344726562	-3.003247314453125	0		2.657843994140625	-0.45493365478515624	0		3.988025634765625	0.041579200744628904	0		5.32809423828125	0.19676048278808594	0		5.967140625	0.6055231323242187	0		-0.3508028259277344	5.946412109375	0		
0.011924549102783203	0.005090906143188477	0		0.4761791687011719	-2.431623291015625	0		-1.1392042236328126	0.05544648742675781	0		-0.555689697265625	-3.00327587890625	0		2.641227783203125	-0.4764956359863281	0		3.975918212890625	0.0419493293762207	0		5.30972119140625	0.22832168579101564	0		5.96332568359375	0.5886696166992188	0		-0.2470906982421875	5.94391845703125	0		
0.016708080291748046	-3.459599986672401E-5	0		0.48387606811523437	-2.4428076171875	0		-1.152037109375	0.06671686553955078	0		-0.5557162475585937	-3.00329736328125	0		2.64987890625	-0.4876533203125	0		3.972367919921875	0.06512154388427735	0		5.30002587890625	0.24566893005371093	0		5.96293359375	0.5560364379882813	0		-0.24732501220703124	5.943904296875	0		
0.01662883186340332	-3.6286000162363054E-5	0		0.522862548828125	-2.44272412109375	0		-1.1264095458984376	0.05407682037353516	0		-0.5557303466796875	-3.0033115234375	0		2.624390625	-0.5050001525878907	0		3.92839453125	0.07024763488769531	0		5.29196728515625	0.24697122192382812	0		5.96998974609375	0.55411962890625	0		-0.2485092010498047	5.944919921875	0		
-0.011495837211608887	-0.0023674910068511965	0		0.4709606018066406	-2.437478271484375	0		-1.1685313720703125	0.052053749084472654	0		-0.5546830444335937	-3.0013427734375	0		2.605728759765625	-0.5305082397460937	0		3.91938134765625	0.07254531860351562	0		5.2816142578125	0.27733642578125	0		5.967923828125	0.5665714721679688	0		-0.24771672058105468	5.94389599609375	0		
